ffmpeg started on 2016-11-27 at 10:24:39
Report written to "Output/NVENCh264/results/ffmpeg/old_town_cross_2160p50llhq8000k.log"
Command line:
Tools/ffmpeg/ffmpeg -benchmark -y -i Input/y4m/old_town_cross_2160p50.y4m -c:v h264_nvenc -preset llhq -b:v 8000k -an Output/NVENCh264/encoded/old_town_cross_2160p50llhq8000k.mkv
ffmpeg version N-82227-gdb23fde Copyright (c) 2000-2016 the FFmpeg developers
  built with gcc 5.4.0 (Ubuntu 5.4.0-6ubuntu1~16.04.2) 20160609
  configuration: --prefix=/home/jaroslav/ffmpeg_build --pkg-config-flags=--static --extra-cflags=-I/home/jaroslav/ffmpeg_build/include --extra-ldflags=-L/home/jaroslav/ffmpeg_build/lib --bindir=/home/jaroslav/bin --enable-gpl --enable-libass --enable-libfdk-aac --enable-libfreetype --enable-libmp3lame --enable-libopus --enable-libtheora --enable-libvorbis --enable-libvpx --enable-libx264 --enable-libx265 --enable-nvenc --enable-libmfx --enable-libxvid --enable-libgsm --enable-libopencore-amrnb --enable-version3 --enable-nonfree
  libavutil      55. 35.100 / 55. 35.100
  libavcodec     57. 66.101 / 57. 66.101
  libavformat    57. 57.100 / 57. 57.100
  libavdevice    57.  2.100 / 57.  2.100
  libavfilter     6. 66.100 /  6. 66.100
  libswscale      4.  3.100 /  4.  3.100
  libswresample   2.  4.100 /  2.  4.100
  libpostproc    54.  2.100 / 54.  2.100
Input #0, yuv4mpegpipe, from 'Input/y4m/old_town_cross_2160p50.y4m':
  Duration: 00:00:10.00, start: 0.000000, bitrate: 4976642 kb/s
    Stream #0:0: Video: rawvideo (I420 / 0x30323449), yuv420p(progressive), 3840x2160, SAR 1:1 DAR 16:9, 50 fps, 50 tbr, 50 tbn, 50 tbc
[h264_nvenc @ 0x2c63120] The variable bitrate rate-control requires the 'qmin' and/or 'qmax' option set.
Output #0, matroska, to 'Output/NVENCh264/encoded/old_town_cross_2160p50llhq8000k.mkv':
  Metadata:
    encoder         : Lavf57.57.100
    Stream #0:0: Video: h264 (h264_nvenc) (Main) (H264 / 0x34363248), yuv420p, 3840x2160 [SAR 1:1 DAR 16:9], q=-1--1, 8000 kb/s, 50 fps, 1k tbn, 50 tbc
    Metadata:
      encoder         : Lavc57.66.101 h264_nvenc
    Side data:
      cpb: bitrate max/min/avg: 0/0/8000000 buffer size: 16000000 vbv_delay: -1
Stream mapping:
  Stream #0:0 -> #0:0 (rawvideo (native) -> h264 (h264_nvenc))
Press [q] to stop, [?] for help
frame=   11 fps=0.0 q=0.0 size=       0kB time=00:00:00.00 bitrate=N/A speed=   0x    frame=   29 fps= 28 q=0.0 size=       0kB time=00:00:00.00 bitrate=N/A speed=   0x    frame=   47 fps= 30 q=35.0 size=       1kB time=00:00:00.32 bitrate=  18.6kbits/s speed=0.206x    frame=   65 fps= 31 q=34.0 size=       1kB time=00:00:00.68 bitrate=   8.8kbits/s speed=0.328x    frame=   83 fps= 32 q=34.0 size=       1kB time=00:00:01.04 bitrate=   5.7kbits/s speed=0.403x    frame=  101 fps= 33 q=35.0 size=       1kB time=00:00:01.40 bitrate=   4.3kbits/s speed=0.451x    frame=  119 fps= 33 q=34.0 size=       1kB time=00:00:01.76 bitrate=   3.4kbits/s speed=0.486x    frame=  137 fps= 33 q=35.0 size=       1kB time=00:00:02.12 bitrate=   2.8kbits/s speed=0.513x    frame=  155 fps= 33 q=29.0 size=       1kB time=00:00:02.48 bitrate=   2.4kbits/s speed=0.534x    frame=  173 fps= 34 q=35.0 size=       1kB time=00:00:02.84 bitrate=   2.1kbits/s speed=0.551x    frame=  191 fps= 34 q=35.0 size=       1kB time=00:00:03.20 bitrate=   1.9kbits/s speed=0.564x    frame=  209 fps= 34 q=34.0 size=       1kB time=00:00:03.56 bitrate=   1.7kbits/s speed=0.576x    frame=  227 fps= 34 q=34.0 size=       1kB time=00:00:03.92 bitrate=   1.5kbits/s speed=0.586x    frame=  239 fps= 33 q=33.0 size=       1kB time=00:00:04.16 bitrate=   1.4kbits/s speed=0.573x    frame=  257 fps= 33 q=33.0 size=       1kB time=00:00:04.52 bitrate=   1.3kbits/s speed=0.581x    frame=  275 fps= 33 q=34.0 size=       1kB time=00:00:04.88 bitrate=   1.2kbits/s speed=0.589x    frame=  293 fps= 33 q=36.0 size=    4746kB time=00:00:05.24 bitrate=7418.0kbits/s speed=0.594x    frame=  311 fps= 33 q=37.0 size=    4746kB time=00:00:05.60 bitrate=6941.2kbits/s speed= 0.6x    frame=  329 fps= 33 q=34.0 size=    4746kB time=00:00:05.96 bitrate=6522.0kbits/s speed=0.606x    frame=  347 fps= 34 q=33.0 size=    4746kB time=00:00:06.32 bitrate=6150.6kbits/s speed=0.61x    frame=  365 fps= 34 q=33.0 size=    4746kB time=00:00:06.68 bitrate=5819.2kbits/s speed=0.615x    frame=  383 fps= 34 q=34.0 size=    4746kB time=00:00:07.04 bitrate=5521.6kbits/s speed=0.618x    frame=  401 fps= 34 q=34.0 size=    4746kB time=00:00:07.40 bitrate=5253.0kbits/s speed=0.622x    frame=  419 fps= 34 q=35.0 size=    4746kB time=00:00:07.76 bitrate=5009.4kbits/s speed=0.625x    frame=  437 fps= 34 q=33.0 size=    4746kB time=00:00:08.12 bitrate=4787.3kbits/s speed=0.629x    frame=  455 fps= 34 q=34.0 size=    4746kB time=00:00:08.48 bitrate=4584.1kbits/s speed=0.632x    frame=  473 fps= 34 q=34.0 size=    4746kB time=00:00:08.84 bitrate=4397.4kbits/s speed=0.634x    frame=  491 fps= 34 q=36.0 size=    4746kB time=00:00:09.20 bitrate=4225.4kbits/s speed=0.637x    frame=  500 fps= 34 q=34.0 Lsize=    9670kB time=00:00:09.98 bitrate=7936.5kbits/s speed=0.676x    
video:9665kB audio:0kB subtitle:0kB other streams:0kB global headers:0kB muxing overhead: 0.045285%
bench: utime=1.100s
bench: maxrss=1410796kB
